<?xml version="1.0" encoding="UTF-8"?>
<svg id="Camada_1" xmlns="http://www.w3.org/2000/svg" version="1.1" viewBox="136 32" width="136" height="32">
  <!-- Generator: Adobe Illustrator 29.0.1, SVG Export Plug-In . SVG Version: 2.1.0 Build 192)  -->
  <defs>
    <style>
      .st0 {
        fill: #fff;
      }

      .st1 {
        fill: #60efd4;
      }
    </style>
  </defs>
  <rect class="st0" x="124.5" y="10.1" width="8.5" height="8.5" rx="3.8" ry="3.8"/>
  <g>
    <path class="st1" d="M64.1,5.4c1.9,0,3.8,0,5.7,0,.8,0,1.6,0,2.3,0,.3,0,.5.1.6.3.2.3.4.6.4,1,0,.7.2,1.4.2,2.1,0,.3,0,.6,0,.9,0,.3-.1.6-.4.8-1.9,1.6-3.8,3.3-5.7,4.9-2,1.7-4,3.5-5.7,5.4-.2.2-.4.4-.3.7.1.3.4.3.7.3,2.4,0,4.7,0,7.1-.1,1,0,2,0,3,0,.8,0,1.3.5,1.4,1.3,0,.5,0,1,0,1.6,0,.7-.6,1.2-1.3,1.2-.7,0-1.4,0-2.2,0-2.4,0-4.9,0-7.3,0-1.6,0-3.2,0-4.8,0-.9,0-1.5-.5-1.7-1.4-.1-.8-.3-1.6-.4-2.4,0-.4,0-.8.4-1.2,2.3-2.9,4.9-5.4,7.7-7.8,1.2-1,2.3-2,3.5-3,.2-.1.4-.3.3-.5,0-.3-.3-.3-.6-.3-.5,0-.9,0-1.4,0-1.9,0-3.9,0-5.8,0-1.3,0-2.5,0-3.8,0-.6,0-1.2-.6-1.2-1.2,0-.6,0-1.1,0-1.7,0-.7.7-1.2,1.4-1.2.9,0,1.7,0,2.6,0,1.8,0,3.5,0,5.3,0,0,0,0,0,0,0Z"/>
    <path class="st1" d="M84.7,26.6c-3.8-.2-6.8-1.8-8.6-5.2-1.1-2.1-1.1-4.3-.5-6.5.4-1.5,1.2-2.9,2.3-4.1,1.5-1.5,3.3-2.3,5.4-2.4,2.9-.1,5.4.8,7.5,2.7,1.8,1.7,2.8,3.8,2.7,6.3,0,2.6-1,4.8-2.7,6.7-1,1.1-2.3,1.7-3.8,2.1-.8.2-1.6.3-2.5.3ZM84.8,22.6c1.6,0,3-.7,3.8-2,.5-.8.8-1.7.9-2.6.1-1,0-2.1-.6-2.9-1.4-2-3.4-2.8-5.8-2.5-1.4.2-2.4.9-3,2.2-.3.6-.5,1.3-.6,1.9-.3,1.8.2,3.3,1.6,4.5,1.1.9,2.3,1.3,3.8,1.3Z"/>
    <path class="st1" d="M112.4,20.2c0-1.3,0-2.6,0-3.9,0-1.2-.5-2.1-1.5-2.7-.9-.6-2-.9-3-1.1-1.5-.2-2.9-.2-4.4.2-2,.6-3.2,1.9-3.6,3.9-.3,1.5-.2,3-.1,4.5,0,1.3.2,2.7.3,4,0,.8-.5,1.4-1.3,1.4-.5,0-.9,0-1.4,0-.7,0-1.3-.6-1.4-1.3,0-1.4-.2-2.8-.2-4.2-.1-1.8,0-3.5.3-5.2.4-1.6,1-3.1,2.1-4.3,1-1,2.2-1.7,3.5-2.2,1.7-.6,3.5-.8,5.4-.6,1.7.2,3.3.6,4.8,1.4,1.6.9,2.9,2.1,3.6,3.9.4.9.4,1.9.4,2.9,0,1.1,0,2.2-.1,3.3,0,1.4-.2,2.9-.3,4.3,0,.6-.6,1.2-1.2,1.2-.3,0-.6,0-1,0-.6,0-1.2-.6-1.2-1.2,0-1.4,0-2.8.1-4.1,0,0,0,0,0,0Z"/>
    <path class="st1" d="M134.1,22.6c-.3-.7-1.1-1-1.8-.7-.4.1-.8.3-1.2.4-1.6.5-3.1.9-4.8.8-1.3,0-2.4-.6-3.1-1.8-.6-.8-.8-1.8-.9-2.7,0-.7.4-1,1-.7,0,0,.2,0,.2.1.9.5,1.8.9,2.7,1.2,2,.6,4,.5,5.9-.5,3-1.7,3.7-5.3,1.6-7.9-1.3-1.6-3.1-2.3-5.1-2.4-1.2,0-2.4.2-3.5.6-2.1.7-3.9,1.8-5.2,3.7-2.2,3.1-2.3,7.7-.1,10.9.9,1.4,2.1,2.4,3.6,2.9,1.2.4,2.4.5,3.6.5.5,0,1,0,1.4,0,1.9-.1,3.7-.6,5.5-1.3.7-.3,1-1,.7-1.7-.2-.4-.4-.9-.6-1.3ZM131.3,15.2s0,0,0,0c0,.2-.2.3-.4.5-.2.2-.5.3-.8.3-.1,0-.3,0-.4,0-.1,0-.3-.1-.3-.3,0-.1,0-.2,0-.4,0,0,0-.2,0-.3.1-.2.3-.4.6-.5.2-.1.4-.2.7-.2.1,0,.3,0,.4.1.2.1.3.3.3.5,0,0,0,.1,0,.2ZM131.1,12.8c.2.1.4.3.3.6,0,.1,0,.2-.1.3-.2.3-.4.4-.7.5-.2,0-.4,0-.5,0-.2,0-.3,0-.4-.2-.1-.1-.1-.2-.1-.4,0-.1,0-.2,0-.3.2-.3.3-.4.6-.5.2,0,.4-.2.6-.2.1,0,.2,0,.4,0ZM128.6,12.5c0-.2.1-.3.2-.5.1-.2.3-.3.4-.4.1,0,.3-.1.4-.1.1,0,.2,0,.3,0,.1,0,.2.2.2.3,0,.2,0,.3,0,.5,0,.1,0,.3-.2.4-.1.2-.3.4-.5.5-.1,0-.3.1-.4.1-.1,0-.2,0-.3,0-.1,0-.2-.2-.2-.3,0-.2,0-.3,0-.5ZM126.7,12.8c0-.1,0-.3.1-.4,0,0,0,0,0-.1.1-.2.3-.4.5-.6.1,0,.3-.2.4-.2.1,0,.2,0,.3,0,.2,0,.3.2.3.3,0,.2,0,.3,0,.5,0,.1-.1.3-.2.4-.2.3-.4.5-.7.6,0,0-.2,0-.3,0,0,0-.2,0-.3,0,0,0-.1-.1-.2-.2,0-.1,0-.3,0-.4ZM125.9,14.6c0-.1,0-.2.1-.4.1-.2.4-.4.7-.5.3,0,.7-.1,1-.2.3,0,.6,0,.9,0,.2,0,.3,0,.4.1.1,0,.2.2.3.4,0,0,0,.2,0,.2,0,0,0,.1,0,.2-.1.3-.2.6-.3,1,0,.3,0,.5-.1.8,0,.1,0,.3-.1.4-.1.2-.3.3-.5.3-.2,0-.3,0-.5,0-.2,0-.3-.2-.4-.3,0-.2-.2-.4-.4-.5,0-.1-.2-.2-.3-.3,0,0-.2-.1-.3-.2-.1,0-.3-.2-.3-.3-.1-.2-.2-.4-.1-.6Z"/>
  </g>
  <rect class="st0" x="23.3" y="11.1" width="8.5" height="8.5" rx="3.8" ry="3.8"/>
  <g>
    <path class="st1" d="M1,18.5c0-1.3,0-2.6,0-4,0-2.5.4-5,1-7.4,0,0,0,0,0,0,.1-.9.6-1.1,1.4-1.1,1,0,2,0,3,0,2,0,3.9.2,5.8.7,1.1.3,2.1.8,3,1.5.9.7,1.4,1.7,1.7,2.8.8,2.9.2,5.6-1.8,8-1,1.2-2.3,1.9-3.7,2.4-1.8.6-3.6.5-5.4,0-.1,0-.3,0-.4-.1-.5-.1-.9.2-.9.7,0,.7,0,1.4,0,2.1,0,.2,0,.4,0,.6,0,.5-.5.9-1,1-.5,0-1,0-1.5,0-.6,0-1.1-.5-1.2-1.2,0-1.6,0-3.1-.1-4.7,0-.4,0-.8,0-1.1h0ZM7.4,9.4c-.3,0-.7,0-1,0-.7,0-1.3.5-1.4,1.2-.3,1.7-.4,3.5-.3,5.2,0,.4.2.6.5.8.1,0,.2.2.3.2.6.3,1.2.5,1.8.8,1.6.6,3.2.3,4.6-.6,1.7-1.1,2.4-3.6,1.6-5.6,0-.2-.3-.5-.4-.6-.4-.4-.9-.6-1.4-.7-1.3-.5-2.7-.6-4.1-.6Z"/>
    <path class="st1" d="M40.7,16.9c0,1,0,2,.1,3,0,.6.2,1.1.7,1.4.4.3.8.3,1.2.2.3,0,.7-.1,1-.1.3,0,.5.1.7.3.3.3.6.6.9.9.2.2.3.4.3.6.1.5,0,.8-.4,1.1-1.1.7-2.4,1.1-3.7,1-1.1,0-2.1-.4-2.8-1.2-.6-.6-.9-1.4-1.2-2.2-.3-1-.3-2-.4-3.1,0-1.6,0-3.2,0-4.8,0-.3-.1-.6-.2-.8,0-.2-.3-.3-.5-.3-.2,0-.4-.1-.5-.2-.2-.2-.3-.5-.3-.8,0-.5,0-.9,0-1.4,0-.3,0-.6.3-.9.1-.2.3-.3.5-.3.2,0,.3-.1.4-.3.2-.2.3-.5.3-.8,0-.6,0-1.3,0-1.9,0-.6.5-1.1,1.1-1.2.4,0,.8,0,1.1,0,.8,0,1.3.4,1.3,1.3,0,.5,0,1.1,0,1.6,0,.8.5,1.3,1.3,1.3.5,0,1,0,1.5,0,.7,0,1.3.5,1.3,1.3,0,.4,0,.7,0,1.1,0,.8-.5,1.3-1.3,1.3-.5,0-.9,0-1.4,0-.8,0-1.3.5-1.3,1.3,0,1,0,1.9,0,2.9,0,0,0,0,0,0Z"/>
    <path class="st1" d="M33.2,23.2c-.3-.8-1-1-1.8-.7-1.5.6-3,1-4.7,1-.7,0-1.4,0-2.1-.4-1.4-.7-2.1-2.4-2.1-3.9,0-.4.3-.6.7-.5.2,0,.3.1.4.2,1.2.7,2.5,1.2,3.9,1.4,1.4.1,2.8-.1,4.1-.9,2.5-1.6,3.1-4.7,1.2-7-1.2-1.4-2.7-2-4.5-2.1-1.2,0-2.3.2-3.4.6-1.9.7-3.5,1.7-4.6,3.4-1.8,2.9-1.8,5.9-.3,8.9.7,1.4,1.7,2.4,3.1,3.1,1.2.5,2.5.7,3.8.7,0,0,.2,0,.3,0,0,0,.2,0,.3,0,2,0,3.8-.5,5.7-1.2.6-.2.9-.9.6-1.5-.1-.3-.3-.7-.5-1ZM28,13.9c0-.1,0-.2.1-.3.1-.1.3-.2.4-.2,0,0,.1,0,.2,0,0,0,0,0,0,0,.2,0,.3.2.4.4.1.2.2.5.2.7,0,.1,0,.2,0,.3,0,.1-.1.2-.3.3-.1,0-.2,0-.3,0,0,0-.2,0-.2-.1-.2-.1-.3-.3-.4-.6,0-.2-.1-.4,0-.6ZM28.8,15.5c.2,0,.4.1.7.2.1,0,.2,0,.3.2.1.1.2.3.3.5,0,.1,0,.3,0,.4,0,.1-.2.2-.3.3-.2,0-.4.2-.5.3-.1,0-.2.2-.3.3,0,0-.1.2-.2.2,0,.1-.2.2-.3.3-.2,0-.4.1-.6,0-.1,0-.2,0-.3-.2-.2-.2-.3-.4-.4-.6,0-.3,0-.6,0-.9,0-.3,0-.5,0-.8,0-.1,0-.3.1-.4,0-.1.2-.2.4-.2,0,0,.1,0,.2,0,0,0,0,0,.1,0,.3.1.6.2.8.3ZM26.6,13.4c.1-.2.3-.3.6-.2.1,0,.2,0,.3.1.2.2.4.4.4.7,0,.2,0,.3,0,.5,0,.1,0,.2-.2.3-.1,0-.2.1-.4,0-.1,0-.2,0-.2,0-.2-.2-.4-.3-.4-.5,0-.2-.1-.4,0-.5,0-.1,0-.2,0-.3ZM25.4,14.3c0-.1.2-.2.3-.2.1,0,.3,0,.4,0,.1,0,.2,0,.3.2.2.1.3.3.4.5,0,.1,0,.2,0,.4,0,0,0,.2,0,.3,0,0-.2.2-.3.2-.1,0-.3,0-.4,0-.2,0-.3-.1-.4-.2-.1-.1-.3-.3-.4-.4,0-.1,0-.2,0-.4,0-.1,0-.2,0-.3ZM25.2,15.9c0-.1.2-.2.3-.2.2,0,.3,0,.5,0,.1,0,.2.1.4.2.2.2.4.4.5.7,0,0,0,.2,0,.3,0,0,0,.2,0,.2,0,0-.1.1-.2.2-.1,0-.2,0-.4,0-.1,0-.2,0-.3-.1,0,0,0,0-.1,0-.2-.2-.4-.3-.5-.5,0-.1-.1-.2-.1-.4,0,0,0-.2,0-.3Z"/>
  </g>
</svg>